<svg width="25" height="24" viewBox="0 0 25 24" fill="none" xmlns="http://www.w3.org/2000/svg">
<path d="M12.5 11.53C4.74 11.53 4.5 20 4.5 20H20.5C20.5 20 20.27 11.53 12.5 11.53ZM12.5 12.53C17.74 12.53 19.06 16.94 19.39 19H5.61C5.93 16.94 7.24 12.53 12.5 12.53Z" fill="#1D1D1D"/>
<path d="M12.5 10.59C13.1531 10.592 13.7921 10.4001 14.3361 10.0387C14.8801 9.67729 15.3046 9.1626 15.5559 8.55978C15.8072 7.95696 15.874 7.29312 15.7478 6.65233C15.6216 6.01154 15.3081 5.4226 14.847 4.96008C14.3859 4.49757 13.7979 4.18228 13.1575 4.05414C12.5171 3.92599 11.853 3.99076 11.2494 4.24023C10.6459 4.4897 10.1299 4.91266 9.76683 5.45556C9.40378 5.99846 9.20998 6.63687 9.20998 7.28998C9.20866 7.72287 9.29279 8.15176 9.45754 8.55208C9.62229 8.95239 9.86442 9.31626 10.1701 9.62282C10.4757 9.92939 10.8388 10.1726 11.2386 10.3386C11.6384 10.5045 12.0671 10.59 12.5 10.59ZM12.5 4.99998C12.9557 4.998 13.4018 5.13146 13.7815 5.38343C14.1613 5.63539 14.4576 5.9945 14.633 6.41518C14.8083 6.83585 14.8547 7.29913 14.7662 7.74622C14.6778 8.1933 14.4586 8.60404 14.1363 8.9263C13.814 9.24856 13.4033 9.46782 12.9562 9.55625C12.5091 9.64467 12.0459 9.59828 11.6252 9.42296C11.2045 9.24764 10.8454 8.9513 10.5934 8.57154C10.3415 8.19178 10.208 7.74572 10.21 7.28998C10.2126 6.68344 10.4547 6.1025 10.8836 5.67361C11.3125 5.24472 11.8934 5.00261 12.5 4.99998Z" fill="#1D1D1D"/>
</svg>
