<svg width="25" height="24" viewBox="0 0 25 24" fill="none" xmlns="http://www.w3.org/2000/svg">
<path d="M17 8.99997V8.46997C17 7.2765 16.5259 6.1319 15.682 5.28799C14.8381 4.44408 13.6935 3.96997 12.5 3.96997C11.3065 3.96997 10.1619 4.44408 9.31802 5.28799C8.47411 6.1319 8 7.2765 8 8.46997V8.99997H2.5L5.5 20H19.5L22.5 8.99997H17ZM9 8.46997C9 8.01034 9.09053 7.55522 9.26642 7.13058C9.44231 6.70594 9.70012 6.3201 10.0251 5.9951C10.3501 5.67009 10.736 5.41228 11.1606 5.23639C11.5852 5.0605 12.0404 4.96997 12.5 4.96997C12.9596 4.96997 13.4148 5.0605 13.8394 5.23639C14.264 5.41228 14.6499 5.67009 14.9749 5.9951C15.2999 6.3201 15.5577 6.70594 15.7336 7.13058C15.9095 7.55522 16 8.01034 16 8.46997V8.99997H9V8.46997ZM18.74 19H6.26L3.81 9.99997H8V12H9V9.99997H16V12H17V9.99997H21.19L18.74 19Z" fill="#1D1D1D"/>
</svg>
