<svg width="25" height="24" viewBox="0 0 25 24" fill="none" xmlns="http://www.w3.org/2000/svg">
<path d="M20.5 19.25L16.81 15.56C17.9896 14.1865 18.5911 12.4092 18.4882 10.6016C18.3853 8.79395 17.5859 7.0965 16.2581 5.86569C14.9302 4.63487 13.1771 3.96645 11.3668 4.00077C9.55657 4.03509 7.83003 4.7695 6.54977 6.04977C5.2695 7.33003 4.53509 9.05657 4.50077 10.8668C4.46645 12.6771 5.13487 14.4302 6.36569 15.7581C7.5965 17.0859 9.29395 17.8853 11.1016 17.9882C12.9092 18.0911 14.6865 17.4896 16.06 16.31L19.75 20L20.5 19.25ZM5.50003 11C5.50003 9.81335 5.85193 8.65331 6.51122 7.66661C7.17051 6.67992 8.10758 5.91088 9.20393 5.45676C10.3003 5.00263 11.5067 4.88381 12.6706 5.11532C13.8345 5.34683 14.9036 5.91828 15.7427 6.75739C16.5818 7.59651 17.1532 8.66561 17.3847 9.82949C17.6163 10.9934 17.4974 12.1998 17.0433 13.2961C16.5892 14.3925 15.8202 15.3296 14.8335 15.9889C13.8468 16.6481 12.6867 17 11.5 17C9.90874 17 8.38261 16.3679 7.25739 15.2427C6.13218 14.1175 5.50003 12.5913 5.50003 11Z" fill="#1D1D1D"/>
</svg>
